<?xml version="1.0" encoding="UTF-8" standalone="no"?> <svg xmlns="http://www.w3.org/2000/svg" viewBox="0 0 48 48"><title>Cleaning And Housekeeping vol.1</title><g id="Layer_10" data-name="Layer 10"><path d="M13.47363,28.52148h1.36286a8.37754,8.37754,0,0,1-1.36182-4.57983V12.31793a1.08545,1.08545,0,0,1,1.08575-1.08575H33.43958a1.08545,1.08545,0,0,1,1.08575,1.08575V23.94165a8.37754,8.37754,0,0,1-1.36182,4.57983h1.36286a4.37431,4.37431,0,0,0,4.36938-4.36883V11.73474A10.3989,10.3989,0,0,0,28.5083,1.34784H19.4917A10.3989,10.3989,0,0,0,9.10425,11.73474V24.15265A4.37431,4.37431,0,0,0,13.47363,28.52148Z"/><path d="M44.69012,43.44855a4.80528,4.80528,0,0,0-4.09051-4.73865v7.94226h4.09051Z"/><path d="M32.35388,23.94165v-10.538H15.64612v10.538a6.26894,6.26894,0,0,0,6.262,6.26251h4.18384A6.26894,6.26894,0,0,0,32.35388,23.94165ZM21.1488,18.6886a1.05925,1.05925,0,0,1-2.08422-.00018A1.06993,1.06993,0,0,1,18.195,17.6463a1.08541,1.08541,0,0,1,1.08569-1.08569h1.653a1.08542,1.08542,0,0,1,1.08569,1.08569A1.07,1.07,0,0,1,21.1488,18.6886ZM25.08569,22.945a1.08569,1.08569,0,1,1-2.17138,0V21.431a1.08569,1.08569,0,1,1,2.17138,0Zm4.18482-4.25641a1.05924,1.05924,0,0,1-2.08417,0,1.07014,1.07014,0,0,1-.87073-1.0423,1.08544,1.08544,0,0,1,1.08576-1.08569h1.654a1.08543,1.08543,0,0,1,1.08575,1.08569A1.07008,1.07008,0,0,1,29.27051,18.6886Z"/><path d="M33.80219,46.65216V38.637H31.9093c-.81732.88263-2.95459,2.42963-7.9093,2.42963s-7.092-1.547-7.9093-2.42963H8.1214a4.817,4.817,0,0,0-4.81152,4.81153v3.20361H33.80219Z"/><path d="M24,32.37561H21.90808a8.41773,8.41773,0,0,1-1.82281-.20392L17.88116,37.353c.62134.5307,2.304,1.54217,6.11884,1.54217,3.79681,0,5.48163-1.002,6.1167-1.54693l-2.202-5.17658a8.41773,8.41773,0,0,1-1.82281.20392Z"/><rect x="35.97363" y="38.63702" width="2.45453" height="8.01514"/></g></svg>