<?xml version="1.0" encoding="UTF-8" standalone="no"?> <svg xmlns="http://www.w3.org/2000/svg" viewBox="0 0 48 48"><title>Cleaning And Housekeeping vol.1</title><g id="Layer_10" data-name="Layer 10"><path d="M38.30664,6.13184H35.47949V2.95215a1,1,0,0,0-2,0V6.13184h-18.959V2.95215a1,1,0,0,0-2,0V6.13184H9.69336a7.249,7.249,0,0,0-7.24121,7.24121V38.80762a7.24876,7.24876,0,0,0,7.24121,7.24023H38.30664a7.24876,7.24876,0,0,0,7.24121-7.24023V13.37305A7.249,7.249,0,0,0,38.30664,6.13184ZM7.35938,31.76953a.99954.99954,0,0,1,1.71.71,1.00585,1.00585,0,0,1-.28907.71,1.01513,1.01513,0,0,1-1.42089,0,1.00681,1.00681,0,0,1-.29-.71A1.05422,1.05422,0,0,1,7.35938,31.76953Zm3.73828,9.44141a4.03188,4.03188,0,0,1-4.02735-4.02735V36.15527a1,1,0,0,1,2,0v1.02832a2.02928,2.02928,0,0,0,2.02735,2.02735,1,1,0,0,1,0,2ZM24,29.67578H18.68652a1,1,0,0,1,0-2H24a1,1,0,0,1,0,2Zm5.31348-5.17187h-10.627a1,1,0,0,1,0-2h10.627a1,1,0,0,1,0,2Z"/></g></svg>