<?xml version="1.0" encoding="UTF-8" standalone="no"?> <svg xmlns="http://www.w3.org/2000/svg" viewBox="0 0 48 48"><title>Cleaning And Housekeeping vol.1</title><g id="Layer_10" data-name="Layer 10"><path d="M14.62744,44.3808A22.63388,22.63388,0,0,0,24,46.45117a21.79891,21.79891,0,0,0,9.30176-2.03589V25H14.62744ZM26.20361,33.72559H28.0415a1,1,0,0,1,0,2H26.20361a1,1,0,1,1,0-2Zm0,4.15429H28.0415a1,1,0,0,1,0,2H26.20361a1,1,0,1,1,0-2Zm-4.31006,2H20.05566a1,1,0,0,1,0-2h1.83789a1,1,0,1,1,0,2Zm0-4.15429H20.05566a1,1,0,0,1,0-2h1.83789a1,1,0,1,1,0,2ZM16.73242,28.169a.99974.99974,0,0,1,1-1h4.5a1,1,0,0,1,0,2h-3.5v.52148a1,1,0,0,1-2,0Zm.07764,3.99121a.9743.9743,0,0,1,.53955-.54.95594.95594,0,0,1,.58008-.06055.6762.6762,0,0,1,.18994.06055A.68428.68428,0,0,1,18.29,31.71c.0498.04.09961.08008.1499.12012a1.1809,1.1809,0,0,1,.21973.33008,1.06139,1.06139,0,0,1,0,.75976,1.06679,1.06679,0,0,1-.21973.33008,1.018,1.018,0,0,1-.32031.21973A1.00361,1.00361,0,0,1,17.73,33.54a.99067.99067,0,0,1-.38037-.07031,1.01587,1.01587,0,0,1-.31982-.21973.91292.91292,0,0,1-.21973-.33008.94107.94107,0,0,1,0-.75976Z"/><rect x="19.57666" y="18.63379" width="8.94385" height="4.34082"/><path d="M24,1.54883A22.4374,22.4374,0,0,0,12.62744,43.33575V24a.99974.99974,0,0,1,1-1h3.94922V17.63379a.99973.99973,0,0,1,1-1h4.47168V12.667a1,1,0,0,1,2,0v3.9668h4.47217a.99974.99974,0,0,1,1,1V23h3.78125a.99974.99974,0,0,1,1,1V43.34113A22.41455,22.41455,0,0,0,24,1.54883Z"/></g></svg>