<?xml version="1.0" encoding="UTF-8" standalone="no"?> <svg xmlns="http://www.w3.org/2000/svg" viewBox="0 0 48 48"><title>Cleaning And Housekeeping vol.1</title><g id="Layer_10" data-name="Layer 10"><path d="M17.35352,20.98779v5.60352h7.61621v-4.3291a1.00016,1.00016,0,0,1,.69433-.95215L34.354,18.52051V16.67627h-20.898l3.6045,3.60449A1.00014,1.00014,0,0,1,17.35352,20.98779Z"/><rect x="13.18262" y="13.87793" width="21.17139" height="0.79834"/><path d="M10.17871,47.03851V35.12207a1.002,1.002,0,0,1,.17578-.56641l4.999-7.275V21.40186l-3.87793-3.87793a1.00014,1.00014,0,0,1-.293-.707v-3.939a1,1,0,0,1,1-1H35.354a1,1,0,0,1,1,1V19.25a1.00016,1.00016,0,0,1-.69433.95215l-2.45307.78747,2.46088,4.88392a1.00012,1.00012,0,0,1-1.78613.90039l-2.60272-5.16541-4.3089,1.38318v4.20618L37.47656,38.49609a1.00161,1.00161,0,0,1,.26758.68116v7.86584a9.73886,9.73886,0,0,0,8.80518-9.68079V10.6377a9.73868,9.73868,0,0,0-9.728-9.72754H11.17871a9.73868,9.73868,0,0,0-9.728,9.72754V37.3623A9.74129,9.74129,0,0,0,10.17871,47.03851Z"/><path d="M12.17871,47.08984H35.74414V39.57031l-10.21-10.979h-8.6543l-4.70117,6.84131Zm7.521-5.18017a.99664.99664,0,0,1,.21-.31983.96662.96662,0,0,1,.33008-.22021,1.13423,1.13423,0,0,1,.58007-.05957c.06006.01953.12012.03955.18018.05957l.17969.09033a1.70416,1.70416,0,0,1,.1499.12988.99009.99009,0,0,1,.21045.31983,1.09391,1.09391,0,0,1,.07959.39013,1.00831,1.00831,0,0,1-.29.7002,1.70416,1.70416,0,0,1-.1499.12988A1.54084,1.54084,0,0,1,21,43.21973a1.23815,1.23815,0,0,1-.18018.06006,1.31849,1.31849,0,0,1-.20019.02.9904.9904,0,0,1-.37988-.08007A.83879.83879,0,0,1,19.90967,43a1.01046,1.01046,0,0,1-.29-.7002A1.0945,1.0945,0,0,1,19.69971,41.90967Zm-4.55908-4.64209a1,1,0,1,1,2,0V41.2959h.52148a1,1,0,0,1,0,2H16.14063a1.00005,1.00005,0,0,1-1-1Z"/></g></svg>