<?xml version="1.0" encoding="UTF-8" standalone="no"?> <svg xmlns="http://www.w3.org/2000/svg" viewBox="0 0 48 48"><title>Cleaning And Housekeeping vol.1</title><g id="Layer_10" data-name="Layer 10"><path d="M35.45374,14.431a18.89145,18.89145,0,0,0,.88018-3.86426c.31287-2.66687.11084-6.16638-2.38226-8.42377l-5.47485,8.80768ZM33.75507,9.01605a1.12787,1.12787,0,0,1,0,1.57947,1.14561,1.14561,0,0,1-.78974.32263,1.10924,1.10924,0,0,1-.77893-1.9021A1.15047,1.15047,0,0,1,33.75507,9.01605Z"/><polygon points="31.652 1.628 16.347 1.628 24 13.938 31.652 1.628"/><path d="M9.3941,46.37189H38.60651a7.8535,7.8535,0,0,0,7.84417-7.84528V17.09491a7.8523,7.8523,0,0,0-7.798-7.843,18.78638,18.78638,0,0,1-.19287,2.19959c-.617,4.11108-2.76465,8.937-4.97638,9.56872a3.37689,3.37689,0,0,1-.931.11951c-2.74255,0-6.80908-2.55243-8.55237-3.7395-1.743,1.18707-5.81,3.7395-8.55255,3.7395a3.38484,3.38484,0,0,1-.931-.11951c-1.3432-.3836-2.66028-2.317-3.62756-4.69482l-.00342-.00507-.00208-.00805a21.94715,21.94715,0,0,1-1.34277-4.86023,18.79669,18.79669,0,0,1-.193-2.20014,7.85316,7.85316,0,0,0-7.79889,7.843v21.4317A7.85444,7.85444,0,0,0,9.3941,46.37189ZM31.149,26.77332A1.11209,1.11209,0,0,1,32.26135,25.661H40.627a1.11205,1.11205,0,0,1,1.11237,1.11237v3.46313a1.11237,1.11237,0,1,1-2.22473,0V27.88568H33.37378v2.35077a1.1124,1.1124,0,0,1-2.22479,0Zm-7.93872-.78211a1.00594,1.00594,0,0,1,.36663-.245,1.06337,1.06337,0,0,1,.64527-.06678,1.437,1.437,0,0,1,.20044.06678,1.72612,1.72612,0,0,1,.20044.1,1.97057,1.97057,0,0,1,.16674.145,1.1139,1.1139,0,0,1,0,1.56806.87382.87382,0,0,1-.16674.1336,1.84172,1.84172,0,0,1-.20044.11133,1.31307,1.31307,0,0,1-.20044.05542A.79045.79045,0,0,1,24,27.8819a1.101,1.101,0,0,1-.4231-.0777,1.17331,1.17331,0,0,1-.36663-.24493,1.71731,1.71731,0,0,1-.13361-.16675,1.182,1.182,0,0,1-.16675-.40033,1.47228,1.47228,0,0,1-.02228-.22266A1.12043,1.12043,0,0,1,23.21027,25.99121Zm0,7.88654a1.16268,1.16268,0,0,1,1.0119-.30036.69083.69083,0,0,1,.20044.06684.84222.84222,0,0,1,.20044.09991q.083.06684.16674.13361a1.17087,1.17087,0,0,1,.32264.78973.93187.93187,0,0,1-.08911.42261,1.04544,1.04544,0,0,1-.23353.36719.92156.92156,0,0,1-.16674.1336.84491.84491,0,0,1-.20044.09992.6908.6908,0,0,1-.20044.06683A1.70761,1.70761,0,0,1,24,35.77991a1.11691,1.11691,0,0,1-.78973-1.90216ZM4.90009,34.4671a.9529.9529,0,0,1,.16723-.13312.61717.61717,0,0,1,.189-.10046.79132.79132,0,0,1,.2113-.06677,1.07139,1.07139,0,0,1,.64527.06677,1.1028,1.1028,0,0,1,.35577.23358,1.12037,1.12037,0,0,1,.32263.78974,1.38423,1.38423,0,0,1-.01086.21179c-.02228.0777-.04456.14453-.06684.2113-.03363.06684-.06677.13306-.10046.189a1.07528,1.07528,0,0,1-.50024.41168,1.12357,1.12357,0,0,1-.434.08856,1.3271,1.3271,0,0,1-.21131-.02228.77255.77255,0,0,1-.2113-.06628.6146.6146,0,0,1-.189-.10046c-.05591-.04456-.12274-.08905-.16723-.13361a1.12152,1.12152,0,0,1-.14454-.17761c-.03308-.056-.06677-.12219-.09991-.189-.02228-.06677-.04456-.1336-.06683-.2113a1.383,1.383,0,0,1-.01087-.21179A1.11985,1.11985,0,0,1,4.90009,34.4671Zm.78485,2.89551A1.11249,1.11249,0,0,1,6.7973,38.475a3.0758,3.0758,0,0,0,3.07263,3.072h1.66694a1.1124,1.1124,0,0,1,0,2.22479H9.86993A5.30316,5.30316,0,0,1,4.57251,38.475,1.1125,1.1125,0,0,1,5.68494,37.36261Z"/><path d="M12.50635,14.30609l7.0075-3.37048-5.466-8.79267c-2.49255,2.25794-2.69513,5.758-2.38116,8.42487A18.83942,18.83942,0,0,0,12.50635,14.30609Zm1.39319-4.72247a.69129.69129,0,0,1,.06683-.20044.84358.84358,0,0,1,.09991-.20038c.04456-.05542.08912-.11139.13367-.16675a1.16421,1.16421,0,0,1,1.57947,0,1.78828,1.78828,0,0,1,.1336.16675.83875.83875,0,0,1,.09992.20038.726.726,0,0,1,.06683.20044,1.53853,1.53853,0,0,1,.02228.22217,1.168,1.168,0,0,1-.32263.78973,1.03123,1.03123,0,0,1-.36719.23358,1.04716,1.04716,0,0,1-.84515,0A1.27255,1.27255,0,0,1,14.2,10.59552a1.168,1.168,0,0,1-.32263-.78973A1.46451,1.46451,0,0,1,13.89954,9.58362Z"/><path d="M25.50568,15.73047c2.49524,1.65448,6.04852,3.52075,7.36731,3.15082a5.59717,5.59717,0,0,0,1.73022-2.38806l-7.30615-3.64466Z"/><path d="M15.132,18.88239c1.30572.37152,4.86993-1.49689,7.363-3.15137l-1.79937-2.89453-7.3573,3.53875A5.79538,5.79538,0,0,0,15.132,18.88239Z"/></g></svg>