<?xml version="1.0" encoding="UTF-8" standalone="no"?> <svg xmlns="http://www.w3.org/2000/svg" viewBox="0 0 48 48"><title>Cleaning And Housekeeping vol.1</title><g id="Layer_10" data-name="Layer 10"><path d="M46.53314,42.03906,45.23871,37.5426h.0246l-.53547-1.77453-.31042-1.07825c-.00745-.02594-.02655-.044-.03577-.06891l-6.8584-22.72833-6.50207,25.65H43.03729l1.46277,5.08118a1.05775,1.05775,0,1,0,2.03308-.58472Z"/><path d="M36.00439,8.13348a3.60887,3.60887,0,0,0-3.49865-4.495H14.0639a3.604,3.604,0,0,0-3.49749,2.72223L3.12671,35.70764l-.00543.01221-.02039.08978-.43933,1.733h.04565L1.45178,43.06909a1.05942,1.05942,0,0,0,.79755,1.26654,1.08812,1.08812,0,0,0,.23553.02588,1.059,1.059,0,0,0,1.031-.82336L4.87781,37.5426H26.35132l-1.10065,4.274a1.05812,1.05812,0,0,0,2.04962.52685l1.23633-4.80084h.01318ZM10.03668,28.36908,8.80884,33.16223a1.19762,1.19762,0,0,1-.38825,2.33051H7.28284a1.19718,1.19718,0,0,1-1.16-1.49445L7.71667,27.775a1.19743,1.19743,0,0,1,2.32.59406Zm2.64972,6.774a1.21407,1.21407,0,0,1-1.70019,0,1.23272,1.23272,0,0,1-.25147-.39527,1.19694,1.19694,0,0,1-.09589-.45489,1.48877,1.48877,0,0,1,.02344-.22681.73329.73329,0,0,1,.07245-.228.65637.65637,0,0,1,.10761-.20349,1.12258,1.12258,0,0,1,.14386-.19177,1.26562,1.26562,0,0,1,1.70019,0c.048.05963.09589.11926.14386.19177a.68048.68048,0,0,1,.10755.20349.70264.70264,0,0,1,.07135.228,1.35819,1.35819,0,0,1,.02453.22681A1.236,1.236,0,0,1,12.6864,35.14313Zm7.60315-7.95044a1.054,1.054,0,0,1-.38238.26312,1.2059,1.2059,0,0,1-.46778.08417,1.14337,1.14337,0,0,1-.83838-.34729,1.19455,1.19455,0,0,1-.359-.83844,1.256,1.256,0,0,1,.09589-.46655,1.04776,1.04776,0,0,1,.26312-.38355,1.22659,1.22659,0,0,1,1.07813-.33557c.07129.02454.15552.04791.228.07245.07128.03509.13092.07135.20343.1076a2.14073,2.14073,0,0,1,.17895.15552,1.10864,1.10864,0,0,1,.34729.8501A1.17766,1.17766,0,0,1,20.28955,27.19269Zm.97406-4.54059a1.19837,1.19837,0,0,1-1.181,1.0033,1.238,1.238,0,0,1-.19531-.0152,1.19875,1.19875,0,0,1-.9881-1.37628l.97174-5.93213a1.19805,1.19805,0,0,1,2.36444.38824Z"/></g></svg>