<?xml version="1.0" encoding="UTF-8" standalone="no"?> <svg xmlns="http://www.w3.org/2000/svg" viewBox="0 0 48 48"><title>Cleaning And Housekeeping vol.1</title><g id="Layer_10" data-name="Layer 10"><path d="M11.18439,47.08984H36.81561a2.56382,2.56382,0,0,0,2.54358-2.17151L43.59,18.282H4.4101L8.64081,44.91888A2.56383,2.56383,0,0,0,11.18439,47.08984Zm7.0346-4.76263a1.0995,1.0995,0,0,1,.16413-.13153.61247.61247,0,0,1,.18658-.09833.66521.66521,0,0,1,.208-.06579,1.1234,1.1234,0,0,1,.98523.29565,1.10279,1.10279,0,0,1,.31756.77728,1.07216,1.07216,0,0,1-.077.4159,1.36622,1.36622,0,0,1-.24054.36138,1.1296,1.1296,0,0,1-.77728.31757,1.1039,1.1039,0,0,1-.76661-.31757.98629.98629,0,0,1-.2406-.36138,1.0824,1.0824,0,0,1-.08764-.4159A1.11368,1.11368,0,0,1,18.219,42.32721Zm-7.12658-9.45416a1.09066,1.09066,0,0,1,1.29.85638l1.67321,8.28131h.76929a1.09482,1.09482,0,1,1,0,2.18964H13.15967a1.09445,1.09445,0,0,1-1.07294-.8783l-1.85016-9.1596A1.09415,1.09415,0,0,1,11.09241,32.87305Z"/><path d="M4.06232,16.09241H43.93774l.00715-.04492a2.575,2.575,0,0,0-2.543-2.9798H6.59814a2.57489,2.57489,0,0,0-2.543,2.97925Z"/><path d="M31.90918,5.22424H26.67987A1.09492,1.09492,0,0,1,25.585,4.12939,3.22258,3.22258,0,0,0,22.36578.91016H12.56146a3.22259,3.22259,0,0,0-3.2193,3.21923v6.74866H38.56085A6.75359,6.75359,0,0,0,31.90918,5.22424Z"/></g></svg>