<?xml version="1.0" encoding="UTF-8" standalone="no"?> <svg xmlns="http://www.w3.org/2000/svg" viewBox="0 0 48 48"><title>Cleaning And Housekeeping vol.1</title><g id="Layer_10" data-name="Layer 10"><path d="M8.66992,19.52881a.99963.99963,0,0,0,1.41406,0l.46582-.46582.46583.46582a.99989.99989,0,1,0,1.41406-1.41406l-.46582-.46582.46582-.46582A.99989.99989,0,0,0,11.01563,15.769l-.46583.46582L10.084,15.769a.99989.99989,0,0,0-1.41406,1.41407l.46582.46582-.46582.46582A.99964.99964,0,0,0,8.66992,19.52881Z"/><path d="M13.27051,7.89209a.99963.99963,0,0,0,1.41406,0l.46582-.4657.46582.4657A.99989.99989,0,1,0,17.03027,6.478l-.46569-.46558.46569-.46557a.99989.99989,0,1,0-1.41406-1.41407l-.46582.4657-.46582-.4657a.99989.99989,0,0,0-1.41406,1.41407l.4657.46557-.4657.46558A.99962.99962,0,0,0,13.27051,7.89209Z"/><path d="M6.666,23.87842a.99989.99989,0,0,0,1.41406-1.41406L3.96094,18.34473a.99989.99989,0,0,0-1.41406,1.41406Z"/><path d="M25.56445,9.09912a.99989.99989,0,0,0,1.41407-1.41406L22.8584,3.56592A.99989.99989,0,1,0,21.44434,4.98Z"/><path d="M9.06128,30.19141a3.65029,3.65029,0,0,0,.3706,1.581L32.79272,8.4126a3.63958,3.63958,0,0,0-4.18542.70782L10.14008,27.58765A3.65944,3.65944,0,0,0,9.06128,30.19141Z"/><path d="M15.34766,32.79462l1.66046-1.6604.00012-.00019L32.15308,15.9892l.00238-.0019,1.65942-1.6593a3.678,3.678,0,0,0,.70557-4.18329l-23.34626,23.345A3.77562,3.77562,0,0,0,15.34766,32.79462Z"/><path d="M34.40027,24.60992l-1.90058-5.50708L20.12164,31.48047l5.50855,1.90015a1.827,1.827,0,0,0,1.873-.43055l6.468-6.4685A1.82724,1.82724,0,0,0,34.40027,24.60992Z"/><rect x="38.69677" y="41.41918" width="8.88394" height="1.4004" transform="translate(-17.14788 42.83832) rotate(-44.99823)"/><path d="M37.77283,43.03534,40.04919,40.759,37.185,37.89587A1.22324,1.22324,0,0,1,38.91492,36.166l2.86413,2.8631,2.27564-2.27557-8.44721-8.44727-6.28192,6.28192Z"/></g></svg>