<?xml version="1.0" encoding="UTF-8" standalone="no"?> <svg xmlns="http://www.w3.org/2000/svg" viewBox="0 0 48 48"><title>Cleaning And Housekeeping vol.1</title><g id="Layer_10" data-name="Layer 10"><path d="M37.46,4.57129l2.23828,2.23828A.99989.99989,0,1,0,41.1123,5.39551L38.58105,2.86426a1.00012,1.00012,0,0,0-.707-.293H28.44385a1,1,0,1,0,0,2h4.24121V6.23077H30.68872a2.16361,2.16361,0,0,0-2.1615,2.16144V12.733H38.84351V8.39221A2.16374,2.16374,0,0,0,36.6814,6.23077H34.68506V4.57129Z"/><path d="M18.76611,3.83691c-9.63818,0-17.18847,4.335-17.18847,9.86817,0,4.9043,6.0957,9.00488,14.49414,9.749.03027.00293.06006.00391.08935.00391a1,1,0,0,0,.08741-1.9961c-7.22364-.64062-12.6709-3.97461-12.6709-7.75683,0-4.26465,6.95556-7.86817,15.18847-7.86817a1,1,0,1,0,0-2Z"/><path d="M16.24854,30.752c-5.75-.50976-10.50538-2.74316-12.11573-5.68945a.99991.99991,0,1,0-1.75488.959C4.3291,29.5918,9.57666,32.168,16.07178,32.74414c.03027.00293.06006.00391.08935.00391a1,1,0,0,0,.08741-1.9961Z"/><path d="M16.24854,38.375c-5.75-.50977-10.50538-2.74316-12.11573-5.69043a.99991.99991,0,1,0-1.75488.959C4.3291,37.21484,9.57617,39.791,16.07178,40.36719c.03027.00293.06006.0039.08935.0039a1,1,0,0,0,.08741-1.99609Z"/><path d="M33.68506,24.49988a4.57767,4.57767,0,1,0,4.57825,4.57831A4.58283,4.58283,0,0,0,33.68506,24.49988Z"/><path d="M40.11426,15.16522H27.25647a6.63666,6.63666,0,0,0-6.62927,6.62927V39.56366H37.88745a1.21613,1.21613,0,1,1,0,2.43225H20.82257a6.63527,6.63527,0,0,0,6.4339,5.06043H40.11426a6.63658,6.63658,0,0,0,6.62866-6.62928V21.79449A6.63654,6.63654,0,0,0,40.11426,15.16522Zm-6.4292,20.92224a7.00992,7.00992,0,1,1,7.0105-7.00927A7.01789,7.01789,0,0,1,33.68506,36.08746Zm9.29669,5.15668a1.29156,1.29156,0,0,1-.65619.65674,1.19371,1.19371,0,0,1-.46258.09735,1.21272,1.21272,0,0,1-.86341-.36456,1.058,1.058,0,0,1-.26721-.38953,1.145,1.145,0,0,1,0-.924,1.1607,1.1607,0,0,1,.26721-.40137,1.23668,1.23668,0,0,1,.38959-.26721,1.25171,1.25171,0,0,1,.9364,0,1.46593,1.46593,0,0,1,.389.26721,1.01012,1.01012,0,0,1,.26721.40137,1.145,1.145,0,0,1,0,.924Z"/></g></svg>